<?xml version="1.0" encoding="utf-8"?>
<!-- Generator: Adobe Illustrator 15.0.0, SVG Export Plug-In . SVG Version: 6.00 Build 0)  -->
<!DOCTYPE svg PUBLIC "-//W3C//DTD SVG 1.1//EN" "http://www.w3.org/Graphics/SVG/1.1/DTD/svg11.dtd">
<svg version="1.1" id="Layer_1" xmlns="http://www.w3.org/2000/svg" xmlns:xlink="http://www.w3.org/1999/xlink" x="0px" y="0px"
	 width="24px" height="24px" viewBox="388 288 24 24" enable-background="new 388 288 24 24" xml:space="preserve">
<path fill="#58585B" d="M400,288.769L400,288.769c-6.628,0-12,4.302-12,9.609c0,4.731,4.27,8.663,9.89,9.46l0,0h0.002
	c0.132,0.019,0.266,0.035,0.399,0.051c1.914,0.399,0.255,2.795,0.882,3.284c0.721,0.564,6.184-3.089,9.502-6.156
	c0.479-0.401,0.917-0.837,1.304-1.302l0.007-0.008c0.093-0.102,0.166-0.194,0.223-0.277c1.136-1.468,1.791-3.199,1.791-5.052
	C412.001,293.07,406.628,288.769,400,288.769z M396.083,300.817c0,0.344-0.282,0.625-0.625,0.625h-2.421
	c-0.344,0-0.625-0.281-0.625-0.625v-4.642c0-0.344,0.281-0.625,0.625-0.625h0.053c0.344,0,0.625,0.281,0.625,0.625v3.965h1.743
	c0.344,0,0.625,0.281,0.625,0.625V300.817z M397.893,300.817c0,0.344-0.281,0.625-0.625,0.625h-0.053l0,0
	c-0.344,0-0.625-0.281-0.625-0.625v-4.642c0-0.344,0.281-0.625,0.625-0.625h0.053c0.344,0,0.625,0.281,0.625,0.625V300.817z
	 M403.563,300.817c0,0.164-0.065,0.321-0.181,0.439l0,0l0,0c-0.037,0.046-0.091,0.084-0.153,0.113
	c-0.091,0.049-0.191,0.073-0.292,0.073h-0.052c-0.084,0-0.164-0.017-0.237-0.047c-0.096-0.035-0.181-0.094-0.243-0.179l0,0
	c-0.018-0.021-0.031-0.041-0.046-0.063l-2.278-3.112v2.775c0,0.344-0.281,0.625-0.625,0.625h-0.052
	c-0.344,0-0.625-0.281-0.625-0.625v-4.642c0-0.344,0.281-0.625,0.625-0.625h0.052c0.231,0,0.436,0.128,0.543,0.316l2.262,3.034
	v-2.726c0-0.344,0.282-0.625,0.626-0.625h0.052c0.345,0,0.626,0.281,0.626,0.625L403.563,300.817L403.563,300.817z M408.035,296.24
	c0,0.344-0.281,0.625-0.625,0.625h-1.743v0.99h1.743c0.344,0,0.625,0.281,0.625,0.626v0.052l0,0c0,0.345-0.281,0.626-0.625,0.626
	h-1.743v0.99h1.743c0.344,0,0.625,0.281,0.625,0.625v0.053c0,0.344-0.281,0.625-0.625,0.625h-2.421
	c-0.344,0-0.625-0.281-0.625-0.625v-4.639c0-0.344,0.281-0.625,0.625-0.625h2.421c0.344,0,0.625,0.281,0.625,0.625V296.24z"/>
</svg>
