<?xml version="1.0" encoding="utf-8"?>
<!-- Generator: Adobe Illustrator 21.0.2, SVG Export Plug-In . SVG Version: 6.00 Build 0)  -->
<svg version="1.1" id="Capa_1" xmlns="http://www.w3.org/2000/svg" xmlns:xlink="http://www.w3.org/1999/xlink" x="0px" y="0px"
	 viewBox="0 0 213 213" style="enable-background:new 0 0 213 213;" xml:space="preserve">
<style type="text/css">
	.st0{fill:#535557;}
</style>
<path class="st0" d="M106.5,0C47.7,0,0,47.7,0,106.5C0,165.3,47.7,213,106.5,213c58.8,0,106.5-47.7,106.5-106.5
	C213,47.7,165.3,0,106.5,0z M165,83.8l-2.2,8c-1.9,7-3.8,14.2-6,21.3c-3.2,10.5-13.2,17.8-24.5,17.8H78.9l2.3,13.2l67.6,0
	c7.7,0,13.6,4.9,15.1,12.4c0.8,4-0.3,8.3-3,11.7c-2.8,3.5-6.8,5.7-11.1,5.8c-0.2,0-0.3,0-0.5,0c-4,0-7.8-1.6-10.6-4.4
	c-2.9-2.9-4.5-6.8-4.4-10.9c0.1-3,1-5.8,2.8-8.3H92.8c2.1,3.1,3.1,6.7,2.6,10.3c-0.6,4.6-3.2,8.8-6.9,11.1
	c-3.6,2.2-7.9,2.7-11.9,1.6c-4-1.1-7.2-3.7-9.2-7.3c-2.1-3.9-2.3-8.5-0.6-12.6c1.6-3.8,4.6-6.8,8.5-8.4l-6.3-36.6
	c-1.2-7.2-2.5-14.3-3.7-21.5l-4.2-24.3c-0.5-3.1-2.9-5.2-6-5.2l-7,0c-3.3,0-6.5,0-9.8,0c-1.1,0-2-0.3-2.6-0.7
	c-0.8-0.6-1.3-1.9-1.1-2.9c0.2-0.9,0.9-1.5,1.4-1.9c0.7-0.6,1.5-0.6,1.8-0.6l5.3,0c4.1,0,8.3,0,12.4,0.1c6,0.2,10.7,4.4,11.7,10.6
	c0.4,2.6,0.9,5.2,1.3,7.8l0.5,3l58.8,4.2c3.9,0.3,7.7,0.6,11.6,0.9l22.6,1.6c1.3,0.1,2.2,0.5,2.8,1.3
	C165.2,81.6,165.3,82.6,165,83.8z"/>
</svg>
