<?xml version="1.0" encoding="utf-8"?>
<!-- Generator: Adobe Illustrator 13.0.0, SVG Export Plug-In . SVG Version: 6.00 Build 14948)  -->
<!DOCTYPE svg PUBLIC "-//W3C//DTD SVG 1.1//EN" "http://www.w3.org/Graphics/SVG/1.1/DTD/svg11.dtd">
<svg version="1.1" id="Layer_1" xmlns="http://www.w3.org/2000/svg" xmlns:xlink="http://www.w3.org/1999/xlink" x="0px" y="0px"
	 width="51px" height="44px" viewBox="0 0 51 44" enable-background="new 0 0 51 44" xml:space="preserve">
<g display="none">
	<path display="inline" fill="#D2202F" d="M37.032,0.298c-7.816,0-11.532,4.997-11.532,4.997s-3.716-4.997-11.533-4.997
		C6.151,0.298,0,7.602,0,16.443c0,17.812,25.5,27.55,25.5,27.55S51,34.255,51,16.443C51,7.602,44.849,0.298,37.032,0.298z"/>
</g>
<g>
	<path fill="#FFFFFF" d="M37.032,0.298C44.849,0.298,51,7.602,51,16.443c0,17.812-25.5,27.55-25.5,27.55S0,34.255,0,16.443
		C0,7.602,6.151,0.298,13.967,0.298c7.817,0,11.533,4.997,11.533,4.997S29.216,0.298,37.032,0.298 M37.032,5.298
		c-5.075,0-7.498,2.951-7.52,2.98l-4.185,5.628l-3.815-5.592c-0.324-0.377-2.759-3.017-7.545-3.017c-4.944,0-8.967,5-8.967,11.146
		c0,10.724,13.457,18.972,20.5,22.131C32.543,35.415,46,27.167,46,16.443C46,10.298,41.978,5.298,37.032,5.298L37.032,5.298z"/>
</g>
</svg>
